# xmcd
#
# Track frame offsets: 
#        150
#        13945
#        28476
#        44307
#        56047
#        69202
#        86382
#        100733
#        120984
#        134237
#        149288
#        164985
#        181351
#        196082
#        213830
#
# Disc length: 3226 seconds
#
# Revision: 14
# Processed by: cddbd v1.5.2PL0 Copyright (c) Steve Scherf et al.
# Submitted via: ExactAudioCopyFreeDBPlugin 1.0
#
DISCID=db0c980f
DTITLE=Pharoahe Monch - Internal Affairs
DYEAR=1999
DGENRE=Hip-Hop
TTITLE0=Intro
TTITLE1=Behind Closed Doors
TTITLE2=Queens
TTITLE3=Rape
TTITLE4=Simon Says
TTITLE5=Official
TTITLE6=Hell Feat. Canibus
TTITLE7=No Mercy Feat. M.O.P.
TTITLE8=Right Here
TTITLE9=The Next Shit Feat. Busta Rhymes
TTITLE10=The Ass Feat. Apani
TTITLE11=The Light
TTITLE12=God Send (Organized Konfusion)
TTITLE13=The Truth Feat. Common and Talib Kweli
TTITLE14=Simon Says (Remix) Feat. Lady Luck, Redman, Method Man, Shaba
TTITLE14=am Sahdeeq and Busta Rhymes
EXTD=
EXTT0=
EXTT1=
EXTT2=
EXTT3=
EXTT4=
EXTT5=
EXTT6=
EXTT7=
EXTT8=
EXTT9=
EXTT10=
EXTT11=
EXTT12=
EXTT13=
EXTT14=
PLAYORDER=
